<svg xmlns="http://www.w3.org/2000/svg" xmlns:xlink="http://www.w3.org/1999/xlink" role="img" viewBox="0 0 1000 300" width="1000" height="300">
  <title>typedefs</title>
  <defs>
    <mask id="icon-mask">
      <rect x="0" y="0" width="100" height="100" fill="white" rx="5" />
    </mask>
    <symbol xmlns="http://www.w3.org/2000/svg" id="icon" viewBox="0 0 630 630">
      <g transform="translate(0.000000,630.000000) scale(0.100000,-0.100000)" fill="#007ACC" stroke="none">
        <path
          d="M0 3150 l0 -3150 3150 0 3150 0 0 3150 0 3150 -3150 0 -3150 0 0 -3150z m5077 251 c160 -40 282 -111 394 -227 58 -62 144 -175 151 -202 2 -8 -272 -192 -438 -295 -6 -4 -30 22 -57 62 -81 118 -166 169 -296 178 -191 13 -314 -87 -313 -254 0 -49 7 -78 27 -118 42 -87 120 -139 365 -245 451 -194 644 -322 764 -504 134 -203 164 -527 73 -768 -100 -262 -348 -440 -697 -499 -108 -19 -364 -16 -480 5 -253 45 -493 170 -641 334 -58 64 -171 231 -164 243 3 4 29 20 58 37 28 16 134 77 234 135 l181 105 38 -56 c53 -81 169 -192 239 -229 201 -106 477 -91 613 31 58 53 82 108 82 189 0 73 -9 105 -47 160 -49 70 -149 129 -433 252 -325 140 -465 227 -593 365 -74 80 -144 208 -173 315 -24 89 -30 312 -11 402 67 314 304 533 646 598 111 21 369 13 478 -14z m-1479 -263 l2 -258 -410 0 -410 0 0 -1165 0 -1165 -290 0 -290 0 0 1165 0 1165 -410 0 -410 0 0 253 c0 140 3 257 7 260 3 4 502 6 1107 5 l1101 -3 3 -257z" />
      </g>
    </symbol>
    <symbol xmlns="http://www.w3.org/2000/svg" viewBox="0 0 24 24" fill="currentColor" id="deno" aria-hidden="true"
      role="img" color="#ffffff">
      <path fill="currentColor"
        d="M12 0c6.627 0 12 5.373 12 12s-5.373 12-12 12S0 18.627 0 12S5.373 0 12 0Zm-.469 6.793c-3.49 0-6.204 2.196-6.204 4.928c0 2.58 2.498 4.228 6.37 4.145l.118-.003l.425-.012l-.109.279l.013.029c.031.072.06.145.084.22l.01.028l.015.045l.021.065l.014.045l.014.047l.015.049l.021.075l.022.079l.015.054l.023.084l.022.088l.023.091l.023.095l.015.065l.024.1l.023.103l.032.143l.017.074l.024.114l.024.117l.025.12l.035.174l.029.142l.037.195l.02.1l.028.155l.03.158l.039.217l.04.225l.04.231l.041.24l.042.246l.042.254l.042.26l.032.201l.055.344l.022.14l.055.36l.045.295l.034.227l.046.308l.023.156a10.758 10.758 0 0 0 6.529-3.412l.05-.055l-.238-.891l-.633-2.37l-.395-1.47l-.348-1.296l-.213-.787l-.136-.498l-.081-.297l-.073-.264l-.032-.11l-.018-.064l-.01-.034l-.008-.026a6.042 6.042 0 0 0-2.038-2.97c-1.134-.887-2.573-1.351-4.252-1.351ZM8.467 19.3a.586.586 0 0 0-.714.4l-.004.013l-.527 1.953c.328.163.665.309 1.008.437l.08.03l.57-2.114l.004-.015a.586.586 0 0 0-.417-.704Zm3.264-1.43a.586.586 0 0 0-.715.4l-.004.014l-.796 2.953l-.004.014a.586.586 0 0 0 1.131.305l.004-.014l.797-2.953l.003-.014a.585.585 0 0 0 .013-.067l.002-.022l-.019-.096l-.027-.138l-.018-.086a.584.584 0 0 0-.367-.295Zm-5.553-3.04a.59.59 0 0 0-.037.09l-.005.02l-.797 2.953l-.004.014a.586.586 0 0 0 1.131.306l.004-.014l.723-2.678a5.295 5.295 0 0 1-1.015-.692Zm-1.9-3.397a.586.586 0 0 0-.715.4l-.004.013l-.797 2.953l-.003.015a.586.586 0 0 0 1.13.305l.005-.014l.797-2.953l.003-.015a.586.586 0 0 0-.416-.704Zm17.868-.67a.586.586 0 0 0-.715.399l-.004.014l-.797 2.953l-.003.014a.586.586 0 0 0 1.13.305l.005-.014l.797-2.953l.003-.014a.586.586 0 0 0-.416-.704ZM2.542 6.82a10.707 10.707 0 0 0-1.251 3.926a.586.586 0 0 0 1.002-.22l.004-.014l.797-2.953l.003-.014a.586.586 0 0 0-.555-.725Zm17.585.02a.586.586 0 0 0-.714.4l-.004.014l-.797 2.953l-.004.014a.586.586 0 0 0 1.131.305l.004-.014l.797-2.953l.004-.014a.586.586 0 0 0-.417-.704Zm-7.846 1.926a.75.75 0 1 1 0 1.5a.75.75 0 0 1 0-1.5Zm-6.27-4.733a.586.586 0 0 0-.715.398l-.004.015l-.797 2.953l-.004.014a.586.586 0 0 0 1.132.305l.003-.014l.797-2.953l.004-.014a.586.586 0 0 0-.417-.704Zm10.238.558a.586.586 0 0 0-.714.399l-.004.014l-.536 1.984c.347.171.678.373.99.603l.051.038l.626-2.32l.004-.014a.586.586 0 0 0-.417-.704Zm-5.211-3.33a10.76 10.76 0 0 0-1.115.158l-.078.015l-.742 2.753l-.004.015a.586.586 0 0 0 1.131.305l.004-.014l.797-2.953l.004-.015a.583.583 0 0 0 .003-.264Zm7.332 2.04l-.156.58l-.004.015a.586.586 0 0 0 1.131.305l.004-.014l.017-.063a10.838 10.838 0 0 0-.923-.772l-.069-.051Zm-4.636-1.944l-.283 1.048l-.003.014a.586.586 0 0 0 1.13.305l.005-.014l.297-1.102c-.35-.097-.705-.176-1.063-.237l-.083-.014Z" />
    </symbol>
  </defs>
  <rect fill="#111827" x="0" y="0" width="1000" height="300" rx="25" />
  <rect fill="#fff2" x="35" y="205" width="930" height="2" />
  <g xmlns="http://www.w3.org/2000/svg">
    <use width="105" height="105" x="55" y="50" fill="white" href="#deno" />
    <use fill="currentColor" x="845" y="50" width="100" height="100" href="#icon" color="currentColor" stroke="none"
      stroke-width="0" mask="url(#icon-mask)" /><text id="title" x="500" y="135" font-size="96"
      font-family="IBM Plex Mono" font-weight="400" fill="#c0ffee" color="#c0ffee" stroke="none" stroke-width="0"
      text-anchor="middle" dominantBaseline="middle" textLength="420">
      <tspan>typedefs</tspan>
    </text><text id="subtitle" x="500" y="260" font-size="24" font-family="IBM Plex Mono" font-weight="400"
      fill="#eeeeee" color="#eeeeee" stroke="none" stroke-width="0" text-anchor="middle">
      <tspan textLength="888">Type guards and utility types for Deno and Deno Deploy projects</tspan>
    </text>
  </g>
</svg>
